<svg width="48" height="48" viewBox="0 0 48 48" fill="none" xmlns="http://www.w3.org/2000/svg">
<path d="M41.6309 13.3815L43.0246 11.9674L41.6206 10.5635L37.4365 6.37937L36.0223 4.96516L34.6081 6.37937L31.8497 9.13778C30.9523 8.66315 29.997 8.2552 28.9847 7.94885V4V2H26.9847H21.0153H19.0153V4V7.94885C17.9992 8.25637 17.0405 8.66626 16.1401 9.1432L13.3259 6.36923L11.9022 4.96591L10.4982 6.38889L6.36991 10.573L4.98476 11.9769L6.36909 13.3815L9.09066 16.1431C8.60918 17.0617 8.19789 18.0422 7.89034 19.0711H4H2V21.0711V26.9847V28.9847H4H7.89306C8.20176 30.0047 8.61361 30.9669 9.09289 31.8703L6.35903 34.6845L4.99469 36.089L6.36991 37.4828L10.4982 41.6669L11.9022 43.0899L13.3259 41.6866L16.1401 38.9126C17.0405 39.3895 17.9992 39.7994 19.0153 40.1069V44V46H21.0153H26.9847H28.9847V44V40.1069C29.997 39.8006 30.9523 39.3926 31.8497 38.918L34.6081 41.6764L36.0223 43.0906L37.4365 41.6764L41.6206 37.4923L43.0145 36.0984L41.641 34.6845L38.9012 31.8642C39.3729 30.9546 39.765 29.9945 40.0603 28.9847H44H46V26.9847V21.0711V19.0711H44H40.063C39.7688 18.0524 39.3772 17.0737 38.9034 16.1492L41.6309 13.3815ZM30.2845 24.0279C30.2845 27.4804 27.4597 30.2845 23.9721 30.2845C20.5197 30.2845 17.7713 27.5157 17.7713 24.0279C17.7713 20.5224 20.5371 17.7155 23.9721 17.7155C27.4422 17.7155 30.2845 20.5578 30.2845 24.0279Z" fill="#5CFFE4" stroke="black" stroke-width="4"/>
</svg>
